<svg xmlns="http://www.w3.org/2000/svg" xmlns:xlink="http://www.w3.org/1999/xlink" width="104" height="27" viewBox="0 0 104 27">
    <defs>
        <path id="a" d="M0 .051h17.067V26H0z"/>
        <path id="c" d="M.693.77h5.935v7.375H.693z"/>
    </defs>
    <g fill="none" fill-rule="evenodd">
        <g transform="translate(0 .95)">
            <mask id="b" fill="#fff">
                <use xlink:href="#a"/>
            </mask>
            <path fill="#FEFEFE" d="M1.686 14.271a13.686 13.686 0 0 1 1.262-5.75c.242-.53.517-1.046.82-1.544.283-.466.59-.918.92-1.353a17.522 17.522 0 0 1 1.9-2.128c.28-.267.566-.523.86-.77.329-.276.656-.598 1.116-.584.467.013.823.38 1.159.666a17.767 17.767 0 0 1 1.82 1.784 16.749 16.749 0 0 1 1.87 2.562c.298.506.568 1.03.803 1.569a13.618 13.618 0 0 1 1.165 5.549 6.855 6.855 0 0 1-6.847 6.847 6.856 6.856 0 0 1-6.848-6.848zm15.378 10.046c-.568-.03-2.438-.209-4.605-1.215a12.745 12.745 0 0 0-1.518-.646c3.536-1.041 6.125-4.316 6.125-8.184 0-9.216-7.772-13.924-8.103-14.12a.942.942 0 0 0-.881.014C7.525.5 0 5.204 0 14.27c0 3.858 2.575 7.124 6.095 8.177-.534.174-1.095.401-1.696.684C1.866 24.325.02 24.314 0 24.316L.002 26c.315 0 2.367-.05 5.115-1.343 2.669-1.256 4.149-1.265 6.6-.041l.02.01c2.38 1.107 4.503 1.328 5.33 1.372l-.003-1.681z" mask="url(#b)"/>
        </g>
        <path fill="#FEFEFE" d="M8.546 9.515l-3.338 1.372 3.341 1.395 3.34-1.372zM13.562 15.287l-3.913 1.608 3.066 1.28c.576-.709 1.006-1.624 1.17-2.753l-.323-.135zM3.532 15.255l-.327.134c.16 1.134.586 2.053 1.16 2.768l3.083-1.267-3.916-1.636zM7.448 12.735l-3.341-1.396-.501.207a8.781 8.781 0 0 0-.47 2.63l.398.166 3.914-1.607zM9.649 12.74l3.916 1.636.396-.163a9.15 9.15 0 0 0-.075-.988 8.886 8.886 0 0 0-.383-1.641l-.516-.215-3.338 1.372zM11.065 7.57C9.872 6.252 8.738 5.492 8.63 5.422l-.003-.003-.005-.002H8.62a.14.14 0 0 0-.145 0h-.002s-1.18.763-2.431 2.138l2.506 1.048 2.516-1.034zM4.993 18.809c1.043.908 2.354 1.312 3.48 1.24h.149c1.12.072 2.424-.327 3.463-1.223l-3.538-1.477-3.554 1.46zM12.99 10.457l.044-.019a11.809 11.809 0 0 0-1.395-2.194l-1.99.818 3.34 1.395zM8.55 16.437l3.913-1.608-3.917-1.635-3.913 1.608zM7.448 9.056l-1.98-.826a11.793 11.793 0 0 0-1.393 2.183l.034.015 3.339-1.372zM27.228 10.198c.086.165.2.298.34.4.142.102.308.177.5.227.19.05.388.074.593.074.137 0 .286-.012.444-.035.157-.023.306-.067.444-.133a.97.97 0 0 0 .345-.27.68.68 0 0 0 .139-.44.618.618 0 0 0-.183-.465 1.454 1.454 0 0 0-.48-.296 4.768 4.768 0 0 0-.67-.207 19.01 19.01 0 0 1-.76-.198 6.834 6.834 0 0 1-.771-.24 2.686 2.686 0 0 1-.671-.372 1.738 1.738 0 0 1-.48-.568c-.121-.227-.182-.5-.182-.824 0-.362.078-.676.233-.943.154-.267.356-.489.606-.667a2.64 2.64 0 0 1 .85-.394 3.59 3.59 0 0 1 .948-.128c.368 0 .722.04 1.06.123.34.082.64.215.905.4.263.184.472.42.626.706.155.286.232.633.232 1.041h-1.501a1.24 1.24 0 0 0-.132-.523.878.878 0 0 0-.301-.326 1.296 1.296 0 0 0-.43-.168 2.648 2.648 0 0 0-.528-.049c-.125 0-.251.013-.376.04a1.012 1.012 0 0 0-.34.138.845.845 0 0 0-.252.246.67.67 0 0 0-.1.375c0 .14.028.25.08.336.052.086.157.165.31.237.155.072.37.145.643.217.273.073.63.165 1.07.277.133.026.315.074.549.143.234.07.466.18.696.33.23.152.43.355.598.608.168.253.252.578.252.973 0 .322-.063.622-.188.898a1.967 1.967 0 0 1-.558.716 2.684 2.684 0 0 1-.918.47 4.374 4.374 0 0 1-1.27.167c-.388 0-.765-.048-1.13-.144a2.838 2.838 0 0 1-.967-.449 2.211 2.211 0 0 1-.667-.78c-.164-.316-.243-.69-.237-1.126h1.5c0 .237.044.438.129.603M33.873 6.19V4.887h5.775V6.19h-2.113v5.747h-1.55V6.19zM47.706 4.886V6.19h-3.723V7.7H47.4v1.205h-3.416v1.727h3.8v1.304h-5.35v-7.05zM52.335 11.936l-2.28-7.05h1.59l1.57 4.957h.02l1.588-4.957h1.6l-2.34 7.05zM64.273 4.886V6.19H60.55V7.7h3.416v1.205H60.55v1.727h3.802v1.304H59v-7.05zM76.15 10.475a1.921 1.921 0 0 1-.315.775 1.92 1.92 0 0 1-.711.602c-.31.162-.728.242-1.254.242-.296 0-.583-.041-.86-.123a2.151 2.151 0 0 1-.74-.385 1.913 1.913 0 0 1-.523-.672c-.132-.272-.198-.603-.198-.992V9.31h1.403v.316c0 .17.012.329.039.474a.997.997 0 0 0 .138.37.688.688 0 0 0 .272.242.985.985 0 0 0 .449.089c.203 0 .362-.036.474-.11a.625.625 0 0 0 .242-.28c.049-.115.079-.241.089-.375a5.29 5.29 0 0 0 .015-.391V4.887h1.549v4.828c0 .23-.022.484-.07.76M80.904 9.304c.069.28.18.532.33.756.152.223.35.403.594.538.243.135.539.203.888.203s.645-.068.889-.203c.243-.135.44-.315.592-.538.15-.224.262-.476.33-.756.07-.279.105-.567.105-.864 0-.309-.035-.609-.104-.898a2.381 2.381 0 0 0-.331-.775 1.68 1.68 0 0 0-.592-.543c-.244-.135-.54-.203-.89-.203-.348 0-.644.068-.887.203a1.674 1.674 0 0 0-.593.543 2.381 2.381 0 0 0-.331.775 3.912 3.912 0 0 0-.103.898c0 .297.035.585.103.864m-1.416-2.33c.157-.45.385-.844.68-1.179.297-.336.66-.599 1.092-.79.43-.19.916-.286 1.456-.286.546 0 1.034.095 1.46.285.429.192.79.455 1.087.791.296.335.524.73.682 1.18.158.451.236.94.236 1.465 0 .514-.078.993-.236 1.437a3.438 3.438 0 0 1-.682 1.16c-.296.33-.658.588-1.086.775-.427.188-.915.282-1.461.282-.54 0-1.025-.094-1.456-.282a3.101 3.101 0 0 1-1.091-.775 3.42 3.42 0 0 1-.681-1.16 4.256 4.256 0 0 1-.237-1.437c0-.526.079-1.014.237-1.466M92.421 10.732c.151 0 .296-.015.435-.045a1.07 1.07 0 0 0 .365-.148.763.763 0 0 0 .252-.281.977.977 0 0 0 .094-.454c0-.362-.103-.621-.306-.776-.205-.154-.475-.231-.81-.231h-1.688v1.935h1.658zm-.089-2.992c.276 0 .503-.066.682-.197.178-.132.266-.346.266-.642 0-.165-.03-.3-.088-.405a.662.662 0 0 0-.238-.246.982.982 0 0 0-.34-.124 2.252 2.252 0 0 0-.4-.035h-1.45V7.74h1.568zm.197-2.853c.336 0 .642.029.918.089.277.059.514.156.711.29.2.136.351.316.46.539.11.224.162.5.162.829 0 .356-.08.652-.24.889-.163.237-.4.43-.717.583.435.125.758.343.972.656.215.313.321.69.321 1.13 0 .356-.069.664-.207.923a1.788 1.788 0 0 1-.557.637 2.457 2.457 0 0 1-.8.365c-.3.08-.608.12-.924.12h-3.416v-7.05h3.317z"/>
        <g transform="translate(97 3.95)">
            <mask id="d" fill="#fff">
                <use xlink:href="#c"/>
            </mask>
            <path fill="#FEFEFE" d="M2.323 6.249c.086.165.199.298.34.4.142.102.308.177.5.227.19.049.388.074.592.074.138 0 .287-.012.445-.035.157-.023.306-.067.443-.133a.966.966 0 0 0 .346-.271.68.68 0 0 0 .139-.44.618.618 0 0 0-.183-.464 1.454 1.454 0 0 0-.48-.296 4.768 4.768 0 0 0-.67-.207c-.25-.06-.504-.125-.76-.198a6.834 6.834 0 0 1-.771-.241 2.669 2.669 0 0 1-.671-.371 1.726 1.726 0 0 1-.48-.568c-.121-.227-.182-.501-.182-.824 0-.362.078-.676.233-.943.154-.267.356-.489.606-.667a2.64 2.64 0 0 1 .85-.394c.315-.086.632-.128.947-.128.369 0 .723.04 1.062.123.339.082.64.215.903.399.264.185.473.42.627.707.155.286.232.633.232 1.041H4.89a1.24 1.24 0 0 0-.132-.523.88.88 0 0 0-.302-.326 1.28 1.28 0 0 0-.43-.168 2.63 2.63 0 0 0-.527-.049c-.125 0-.251.013-.376.039a1.012 1.012 0 0 0-.34.139.845.845 0 0 0-.252.246.663.663 0 0 0-.1.375c0 .139.028.25.08.336.052.086.157.165.31.237.155.072.37.145.643.217.273.073.63.165 1.07.277.133.026.315.074.549.143.233.069.466.179.696.33.23.152.43.355.598.608.167.253.252.578.252.973 0 .322-.063.622-.188.898a1.967 1.967 0 0 1-.558.716 2.684 2.684 0 0 1-.918.469 4.374 4.374 0 0 1-1.27.168c-.388 0-.765-.048-1.13-.144a2.838 2.838 0 0 1-.967-.449 2.211 2.211 0 0 1-.667-.78C.767 6.456.687 6.081.694 5.646h1.5c0 .237.044.438.129.603" mask="url(#d)"/>
        </g>
        <path fill="#FEFEFE" d="M43.663 20.704l-.967-2.705h-.017l-.983 2.705h1.967zm-.536-3.404l2.265 5.8h-.853l-.633-1.746h-2.453l-.65 1.746h-.787l2.257-5.8h.853zM51.091 18.12a1.792 1.792 0 0 0-1.052-.308c-.346 0-.643.065-.888.195-.248.13-.45.305-.61.524a2.28 2.28 0 0 0-.354.75 3.404 3.404 0 0 0-.114.879c0 .33.04.643.114.938.076.295.194.553.353.772.16.219.364.394.614.524s.546.195.893.195c.255 0 .482-.042.68-.126.197-.084.367-.2.51-.35.144-.148.256-.326.338-.532.081-.205.13-.427.147-.666h.771c-.076.73-.328 1.3-.756 1.706-.427.407-1.012.61-1.754.61-.45 0-.843-.078-1.178-.232a2.324 2.324 0 0 1-.837-.637 2.747 2.747 0 0 1-.5-.96 4.126 4.126 0 0 1-.166-1.185c0-.423.06-.82.18-1.191a2.87 2.87 0 0 1 .522-.97c.231-.276.518-.495.861-.654.344-.16.738-.24 1.182-.24.304 0 .591.04.861.122.272.082.512.2.724.358.211.157.387.353.528.588.141.236.233.509.276.817h-.772c-.087-.412-.277-.72-.573-.926M58.041 20.704l-.967-2.705h-.016l-.983 2.705h1.966zm-.536-3.404l2.266 5.8h-.853l-.633-1.746h-2.454l-.65 1.746h-.787l2.257-5.8h.854zM64.02 22.45c.087 0 .196-.006.325-.02a1.895 1.895 0 0 0 .85-.321 1.47 1.47 0 0 0 .386-.398c.113-.168.207-.378.28-.63.073-.252.109-.556.109-.914 0-.346-.033-.656-.1-.93a1.818 1.818 0 0 0-.334-.699 1.475 1.475 0 0 0-.597-.439c-.244-.1-.545-.149-.902-.149h-1.3v4.5h1.284zm-.064-5.15c.893 0 1.58.227 2.063.682.482.455.723 1.148.723 2.08 0 .488-.054.92-.162 1.295a2.445 2.445 0 0 1-.503.951 2.199 2.199 0 0 1-.87.59c-.352.135-.77.202-1.251.202h-1.991v-5.8h1.99zM73.315 17.3v.65h-3.233v1.844h3.013v.65h-3.013v2.006h3.257v.65h-4.03v-5.8zM76.97 17.3l1.827 4.875 1.836-4.875h1.057v5.8h-.73v-4.825h-.017L79.131 23.1h-.658l-1.812-4.825h-.016V23.1h-.73v-5.8zM86.995 23.1h-.772v-2.372L83.981 17.3h.918l1.739 2.762 1.697-2.762h.878l-2.218 3.428z"/>
    </g>
</svg>
